<svg xmlns="http://www.w3.org/2000/svg" xmlns:xlink="http://www.w3.org/1999/xlink" width="1366" height="301" viewBox="0 0 1366 301"><defs><clipPath id="4f23b272-1fc2-4f01-a00a-5f0802e9e4c3"><polygon id="d7f68b32-50e2-4119-b464-8a8f5bc7aa9e" data-name="clipping mask" points="0 0 0 262 1366 91 1366 0 0 0" fill="none"/></clipPath></defs><title>try-another</title><g style="isolation:isolate"><g id="783242e7-c68a-4670-a2b0-ce21f1202474" data-name="Header-Group"><image width="1396" height="292" transform="translate(-15 -2)" opacity="0.85" xlink:href="try-another1.png" style="mix-blend-mode:multiply"/><g clip-path="url(#4f23b272-1fc2-4f01-a00a-5f0802e9e4c3)"><path id="c8b8c9e7-0337-4092-a328-41cb0f90fa5e" data-name="black background" d="M0,0H1366V91L0,262Z" fill="#292929"/><g id="2c58eb8b-6591-4408-bcd1-72d51851f05c" data-name="name stetson" style="isolation:isolate"><path d="M224.69,155.2H204.1l-37.57-58s.38,10.29.38,19.34V155.2h-19.6V69.64h21.46l36.7,57.54s-.37-9.67-.37-18.73V69.64h19.59Z" fill="#fff"/><path d="M317.31,155.2H295.49L289.42,138H258.91l-6.07,17.24H232l32.24-85.68h20.83Zm-32.48-32.86L274.16,91.59,263.5,122.34Z" fill="#fff"/><path d="M420.6,155.2H400.89l-3.35-58.28h-.25L378.94,155.2H363.07L344.6,96.92h-.38l-3.1,58.28H321.41l6.45-85.56h25.29L371,125.94h.25l17.6-56.3h25.42Z" fill="#fff"/><path d="M489.55,155.2H433V69.64h55.42v16H453v17.48h33.48v16H453V139h36.58Z" fill="#fff"/><path d="M596.06,106H528V91.47h68.07Zm0,27.41H528V118.87h68.07Z" fill="#fff"/><path d="M685.47,149.62c-6.08,4.84-14,7.07-23.19,7.07-12.4,0-23.44-6.45-30.38-12.9l9.92-14.63C648,135.61,657.57,140,664.14,140s11.41-3.1,11.41-8.81-6.33-8.06-10-9.42-10.16-3.6-13-4.83c-2.1-1-6.44-2.61-10.16-6.2s-6.7-8.44-6.7-16.5a24.09,24.09,0,0,1,8.93-18.72c4.83-4.09,12.65-6.82,22.57-6.82s21.32,4.71,27.15,10.54l-8.56,14c-5-5-12.64-8.68-19.09-8.68S655.46,87,655.46,92.21s4.83,7.19,8.68,8.68,10,3.72,12.77,4.84c2.36.86,8.06,3.1,11.9,6.94a22.37,22.37,0,0,1,6.7,16.49A25.92,25.92,0,0,1,685.47,149.62Z" fill="#fff"/><path d="M761.85,85.52H739.78V155.2H719.69V85.52H697.62V69.64h64.23Z" fill="#fff"/><path d="M826.7,155.2H770.16V69.64h55.42v16H790.12v17.48H823.6v16H790.12V139H826.7Z" fill="#fff"/><path d="M896,85.52H873.94V155.2H853.86V85.52H831.79V69.64H896Z" fill="#fff"/><path d="M950.2,149.62c-6.07,4.84-14,7.07-23.18,7.07-12.4,0-23.44-6.45-30.38-12.9l9.92-14.63c6.2,6.45,15.74,10.79,22.32,10.79s11.4-3.1,11.4-8.81-6.32-8.06-10-9.42-10.17-3.6-13-4.83c-2.11-1-6.45-2.61-10.17-6.2s-6.69-8.44-6.69-16.5a24.12,24.12,0,0,1,8.92-18.72c4.84-4.09,12.65-6.82,22.57-6.82S953.18,73.36,959,79.19l-8.56,14c-5-5-12.65-8.68-19.09-8.68S920.2,87,920.2,92.21s4.83,7.19,8.68,8.68,10,3.72,12.77,4.84c2.35.86,8.06,3.1,11.9,6.94a22.37,22.37,0,0,1,6.7,16.49A25.93,25.93,0,0,1,950.2,149.62Z" fill="#fff"/><path d="M1012,156.69c-25.42,0-45.38-16.49-45.38-44.14s20-44.27,45.38-44.27,45.38,16.62,45.38,44.27S1037.37,156.69,1012,156.69Zm0-71.3c-14.26,0-25,10.29-25,26.66s10.78,26.78,25,26.78,25-10.41,25-26.78S1026.21,85.39,1012,85.39Z" fill="#fff"/><path d="M1146,155.2h-20.58l-37.57-58s.37,10.29.37,19.34V155.2h-19.59V69.64h21.45l36.7,57.54s-.37-9.67-.37-18.73V69.64H1146Z" fill="#fff"/></g></g></g></g></svg>